# Blender v2.71 (sub 0) OBJ File: ''
# www.blender.org
mtllib cone.mtl
o Cone_Cone.001
v 0.684463 0.511762 -0.745364
v 0.879554 0.511762 -0.726150
v 1.067147 0.511762 -0.669244
v 1.240034 0.511762 -0.576834
v 1.391570 0.511762 -0.452471
v 1.515933 0.511762 -0.300934
v 1.608343 0.511762 -0.128048
v 1.665249 0.511762 0.059545
v 1.684463 0.511762 0.254636
v 0.684463 6.101886 0.254636
v 1.665249 0.511762 0.449726
v 1.608343 0.511762 0.637319
v 1.515933 0.511762 0.810206
v 1.391570 0.511762 0.961742
v 1.240033 0.511762 1.086105
v 1.067147 0.511762 1.178515
v 0.879553 0.511762 1.235421
v 0.684463 0.511762 1.254636
v 0.489373 0.511762 1.235421
v 0.301779 0.511762 1.178515
v 0.128893 0.511762 1.086105
v -0.022644 0.511762 0.961742
v -0.147007 0.511762 0.810205
v -0.239417 0.511762 0.637318
v -0.296322 0.511762 0.449725
v -0.315537 0.511762 0.254635
v -0.296322 0.511762 0.059544
v -0.239416 0.511762 -0.128049
v -0.147006 0.511762 -0.300936
v -0.022643 0.511762 -0.452472
v 0.128894 0.511762 -0.576835
v 0.301781 0.511762 -0.669244
v 0.489374 0.511762 -0.726150
usemtl None
s off
f 32 10 33
f 1 10 2
f 31 10 32
f 30 10 31
f 29 10 30
f 28 10 29
f 27 10 28
f 26 10 27
f 25 10 26
f 24 10 25
f 23 10 24
f 22 10 23
f 21 10 22
f 20 10 21
f 19 10 20
f 18 10 19
f 17 10 18
f 16 10 17
f 15 10 16
f 14 10 15
f 13 10 14
f 12 10 13
f 11 10 12
f 9 10 11
f 8 10 9
f 7 10 8
f 6 10 7
f 5 10 6
f 4 10 5
f 3 10 4
f 33 10 1
f 2 10 3
f 1 2 3 4 5 6 7 8 9 11 12 13 14 15 16 17 18 19 20 21 22 23 24 25 26 27 28 29 30 31 32 33
